<?xml version="1.0"?>
<svg xmlns="http://www.w3.org/2000/svg" xmlns:xlink="http://www.w3.org/1999/xlink" version="1.1" id="Capa_1" x="0px" y="0px" viewBox="0 0 54 54" style="enable-background:new 0 0 54 54;" xml:space="preserve" width="512px" height="512px" class=""><g transform="matrix(6.12323e-17 1 -1 6.12323e-17 54 0)"><g>
	<g>
		<rect x="1" y="1" style="fill:#FFFFFF" width="52" height="52" data-original="#687492" class="" data-old_color="#687492"/>
		<path style="fill:#FFFFFF" d="M54,54H0V0h54V54z M2,52h50V2H2V52z" data-original="#687492" class="" data-old_color="#687492"/>
	</g>
	<path style="fill:#000000" d="M44,36c-0.256,0-0.512-0.098-0.707-0.293L27,19.414L10.707,35.707c-0.391,0.391-1.023,0.391-1.414,0   s-0.391-1.023,0-1.414L27,16.586l17.707,17.707c0.391,0.391,0.391,1.023,0,1.414C44.512,35.902,44.256,36,44,36z" data-original="#FFFFFF" class="active-path" data-old_color="#FFFFFF"/>
</g></g> </svg>
